<svg width="211" height="53" viewBox="0 0 211 53" fill="none" xmlns="http://www.w3.org/2000/svg">
<path d="M37.1348 24.5664C37.1348 26.7839 36.7454 28.8236 35.9668 30.6855C35.2051 32.5475 34.1471 34.1556 32.793 35.5098C31.4388 36.847 29.8307 37.8965 27.9688 38.6582C26.1068 39.4199 24.084 39.8008 21.9004 39.8008H4.07617C3.60221 39.8008 3.16211 39.7161 2.75586 39.5469C2.34961 39.3776 1.99414 39.1491 1.68945 38.8613C1.40169 38.5566 1.17318 38.2012 1.00391 37.7949C0.834635 37.3887 0.75 36.9486 0.75 36.4746V6.7168C0.75 6.25977 0.834635 5.82812 1.00391 5.42188C1.17318 5.01562 1.40169 4.66016 1.68945 4.35547C1.99414 4.05078 2.34961 3.8138 2.75586 3.64453C3.16211 3.47526 3.60221 3.39062 4.07617 3.39062H21.9004C24.084 3.39062 26.1068 3.77148 27.9688 4.5332C29.8307 5.29492 31.4388 6.35286 32.793 7.70703C34.1471 9.04427 35.2051 10.6523 35.9668 12.5312C36.7454 14.3932 37.1348 16.4245 37.1348 18.625V24.5664ZM30.5332 18.625C30.5332 17.3385 30.3216 16.1621 29.8984 15.0957C29.4922 14.0293 28.9082 13.1237 28.1465 12.3789C27.3848 11.6172 26.4707 11.0332 25.4043 10.627C24.3548 10.2038 23.1868 9.99219 21.9004 9.99219H7.35156V33.1992H21.9004C23.1868 33.1992 24.3548 32.9961 25.4043 32.5898C26.4707 32.1667 27.3848 31.5827 28.1465 30.8379C28.9082 30.0762 29.4922 29.1706 29.8984 28.1211C30.3216 27.0547 30.5332 25.8698 30.5332 24.5664V18.625ZM49.5762 6.7168H42.9746V0.75H49.5762V6.7168ZM49.5762 39.8008H42.9746V12.3535H49.5762V39.8008ZM85.7832 42.4414C85.7832 43.5755 85.6393 44.5911 85.3516 45.4883C85.0638 46.4023 84.6829 47.1979 84.209 47.875C83.735 48.569 83.1849 49.153 82.5586 49.627C81.9323 50.1178 81.2721 50.5156 80.5781 50.8203C79.901 51.125 79.207 51.3451 78.4961 51.4805C77.8021 51.6328 77.1419 51.709 76.5156 51.709H64.6074V45.1074H76.5156C77.4128 45.1074 78.0814 44.8789 78.5215 44.4219C78.9616 43.9648 79.1816 43.3047 79.1816 42.4414V21.5957C79.1816 20.7324 78.9616 20.0807 78.5215 19.6406C78.0814 19.1836 77.4128 18.9551 76.5156 18.9551H64.6074C63.7949 18.9551 63.1517 19.209 62.6777 19.7168C62.2038 20.2077 61.9668 20.834 61.9668 21.5957V30.5332C61.9668 31.3965 62.1953 32.0566 62.6523 32.5137C63.1094 32.9707 63.778 33.1992 64.6582 33.1992H76.5156V39.8008H64.6074C63.9811 39.8008 63.321 39.7331 62.627 39.5977C61.9329 39.4453 61.2389 39.2168 60.5449 38.9121C59.8678 38.6074 59.2161 38.2181 58.5898 37.7441C57.9635 37.2533 57.4134 36.6693 56.9395 35.9922C56.4655 35.2982 56.0846 34.5026 55.7969 33.6055C55.5091 32.6914 55.3652 31.6673 55.3652 30.5332V21.5957C55.3652 20.9694 55.4329 20.3092 55.5684 19.6152C55.7207 18.9212 55.9492 18.2357 56.2539 17.5586C56.5586 16.8646 56.9479 16.2044 57.4219 15.5781C57.9128 14.9518 58.4967 14.4017 59.1738 13.9277C59.8678 13.4538 60.6634 13.0729 61.5605 12.7852C62.4577 12.4974 63.4733 12.3535 64.6074 12.3535H76.5156C77.1419 12.3535 77.8021 12.4297 78.4961 12.582C79.207 12.7174 79.901 12.9375 80.5781 13.2422C81.2721 13.5469 81.9323 13.9447 82.5586 14.4355C83.1849 14.9095 83.735 15.4935 84.209 16.1875C84.6829 16.8646 85.0638 17.6517 85.3516 18.5488C85.6393 19.446 85.7832 20.4616 85.7832 21.5957V42.4414ZM103.887 39.8008H100.941C99.9935 39.8008 98.9779 39.64 97.8945 39.3184C96.8281 38.9967 95.8294 38.472 94.8984 37.7441C93.9674 36.9993 93.1973 36.043 92.5879 34.875C91.9785 33.6901 91.6738 32.2428 91.6738 30.5332V0.75H98.2754V30.5332C98.2754 31.3457 98.5293 31.9974 99.0371 32.4883C99.5449 32.9622 100.18 33.1992 100.941 33.1992H103.887V39.8008ZM137.986 30.5332C137.986 31.6673 137.842 32.6914 137.555 33.6055C137.267 34.5026 136.886 35.2982 136.412 35.9922C135.938 36.6693 135.388 37.2533 134.762 37.7441C134.135 38.2181 133.475 38.6074 132.781 38.9121C132.104 39.2168 131.41 39.4453 130.699 39.5977C130.005 39.7331 129.345 39.8008 128.719 39.8008H116.811C115.896 39.8008 114.898 39.64 113.814 39.3184C112.731 38.9967 111.724 38.472 110.793 37.7441C109.879 36.9993 109.109 36.043 108.482 34.875C107.873 33.6901 107.568 32.2428 107.568 30.5332V21.5957C107.568 19.903 107.873 18.4727 108.482 17.3047C109.109 16.1198 109.879 15.1634 110.793 14.4355C111.724 13.6908 112.731 13.1576 113.814 12.8359C114.898 12.5143 115.896 12.3535 116.811 12.3535H128.719C130.411 12.3535 131.85 12.6582 133.035 13.2676C134.22 13.877 135.176 14.6471 135.904 15.5781C136.632 16.4922 137.157 17.4909 137.479 18.5742C137.817 19.6576 137.986 20.6647 137.986 21.5957V30.5332ZM131.385 21.6465C131.385 20.7324 131.156 20.0553 130.699 19.6152C130.242 19.1751 129.582 18.9551 128.719 18.9551H116.861C115.981 18.9551 115.312 19.1836 114.855 19.6406C114.398 20.0807 114.17 20.7324 114.17 21.5957V30.5332C114.17 31.3965 114.398 32.0566 114.855 32.5137C115.312 32.9707 115.981 33.1992 116.861 33.1992H128.719C129.616 33.1992 130.285 32.9707 130.725 32.5137C131.165 32.0566 131.385 31.3965 131.385 30.5332V21.6465ZM173.482 30.5332C173.482 31.6673 173.339 32.6914 173.051 33.6055C172.763 34.5026 172.382 35.2982 171.908 35.9922C171.434 36.6693 170.884 37.2533 170.258 37.7441C169.632 38.2181 168.971 38.6074 168.277 38.9121C167.6 39.2168 166.906 39.4453 166.195 39.5977C165.501 39.7331 164.841 39.8008 164.215 39.8008H152.307C151.393 39.8008 150.394 39.64 149.311 39.3184C148.227 38.9967 147.22 38.472 146.289 37.7441C145.375 36.9993 144.605 36.043 143.979 34.875C143.369 33.6901 143.064 32.2428 143.064 30.5332V21.5957C143.064 19.903 143.369 18.4727 143.979 17.3047C144.605 16.1198 145.375 15.1634 146.289 14.4355C147.22 13.6908 148.227 13.1576 149.311 12.8359C150.394 12.5143 151.393 12.3535 152.307 12.3535H164.215C165.908 12.3535 167.346 12.6582 168.531 13.2676C169.716 13.877 170.673 14.6471 171.4 15.5781C172.128 16.4922 172.653 17.4909 172.975 18.5742C173.313 19.6576 173.482 20.6647 173.482 21.5957V30.5332ZM166.881 21.6465C166.881 20.7324 166.652 20.0553 166.195 19.6152C165.738 19.1751 165.078 18.9551 164.215 18.9551H152.357C151.477 18.9551 150.809 19.1836 150.352 19.6406C149.895 20.0807 149.666 20.7324 149.666 21.5957V30.5332C149.666 31.3965 149.895 32.0566 150.352 32.5137C150.809 32.9707 151.477 33.1992 152.357 33.1992H164.215C165.112 33.1992 165.781 32.9707 166.221 32.5137C166.661 32.0566 166.881 31.3965 166.881 30.5332V21.6465ZM209.385 30.5332C209.385 31.6673 209.241 32.6914 208.953 33.6055C208.665 34.5026 208.285 35.2982 207.811 35.9922C207.337 36.6693 206.786 37.2533 206.16 37.7441C205.534 38.2181 204.874 38.6074 204.18 38.9121C203.503 39.2168 202.817 39.4453 202.123 39.5977C201.429 39.7331 200.769 39.8008 200.143 39.8008H188.234V33.1992H200.143C201.023 33.1992 201.683 32.9707 202.123 32.5137C202.563 32.0566 202.783 31.3965 202.783 30.5332V21.6465C202.783 20.7324 202.555 20.0553 202.098 19.6152C201.658 19.1751 201.006 18.9551 200.143 18.9551H188.285C187.388 18.9551 186.711 19.1836 186.254 19.6406C185.797 20.0807 185.568 20.7324 185.568 21.5957V48.3828H178.967V21.5957C178.967 20.4616 179.111 19.446 179.398 18.5488C179.686 17.6517 180.067 16.8646 180.541 16.1875C181.032 15.4935 181.59 14.9095 182.217 14.4355C182.843 13.9447 183.495 13.5469 184.172 13.2422C184.866 12.9375 185.56 12.7174 186.254 12.582C186.965 12.4297 187.625 12.3535 188.234 12.3535H200.143C201.277 12.3535 202.292 12.4974 203.189 12.7852C204.087 13.0729 204.874 13.4538 205.551 13.9277C206.245 14.4017 206.829 14.9518 207.303 15.5781C207.794 16.2044 208.191 16.8646 208.496 17.5586C208.801 18.2357 209.021 18.9212 209.156 19.6152C209.309 20.3092 209.385 20.9694 209.385 21.5957V30.5332Z" fill="#00FF9C"/>
<path d="M35.9668 30.6855L35.2748 30.3962L35.2726 30.4016L35.9668 30.6855ZM32.793 35.5098L33.32 36.0434L33.3233 36.0401L32.793 35.5098ZM2.75586 39.5469L2.4674 40.2392L2.75586 39.5469ZM1.68945 38.8613L1.14419 39.3763L1.17449 39.4066L1.68945 38.8613ZM1.68945 4.35547L1.15912 3.82514L1.14419 3.8405L1.68945 4.35547ZM32.793 7.70703L32.2626 8.23737L32.266 8.24069L32.793 7.70703ZM35.9668 12.5312L35.2717 12.813L35.2749 12.8206L35.9668 12.5312ZM29.8984 15.0957L29.1975 15.3627L29.2013 15.3723L29.8984 15.0957ZM28.1465 12.3789L27.6161 12.9093L27.6221 12.9152L28.1465 12.3789ZM25.4043 10.627L25.1238 11.3225L25.1373 11.3278L25.4043 10.627ZM7.35156 9.99219V9.24219L6.60156 9.99219H7.35156ZM7.35156 33.1992H6.60156L7.35156 33.9492V33.1992ZM25.4043 32.5898L25.6751 33.2893L25.6809 33.287L25.4043 32.5898ZM28.1465 30.8379L28.6709 31.3742L28.6768 31.3682L28.1465 30.8379ZM29.8984 28.1211L29.2013 27.8444L29.199 27.8503L29.8984 28.1211ZM37.1348 24.5664H36.3848C36.3848 26.6944 36.0116 28.6345 35.2749 30.3962L35.9668 30.6855L36.6587 30.9749C37.4793 29.0126 37.8848 26.8733 37.8848 24.5664H37.1348ZM35.9668 30.6855L35.2726 30.4016C34.5467 32.1761 33.5429 33.6992 32.2626 34.9794L32.793 35.5098L33.3233 36.0401C34.7514 34.612 35.8635 32.9189 36.661 30.9695L35.9668 30.6855ZM32.793 35.5098L32.266 34.9761C30.9855 36.2406 29.4613 37.2373 27.6848 37.964L27.9688 38.6582L28.2527 39.3524C30.2002 38.5557 31.8921 37.4534 33.32 36.0434L32.793 35.5098ZM27.9688 38.6582L27.6848 37.964C25.9204 38.6858 23.995 39.0508 21.9004 39.0508V39.8008V40.5508C24.173 40.5508 26.2932 40.154 28.2527 39.3524L27.9688 38.6582ZM21.9004 39.8008V39.0508H4.07617V39.8008V40.5508H21.9004V39.8008ZM4.07617 39.8008V39.0508C3.69354 39.0508 3.35232 38.9829 3.04432 38.8546L2.75586 39.5469L2.4674 40.2392C2.97189 40.4494 3.51089 40.5508 4.07617 40.5508V39.8008ZM2.75586 39.5469L3.04432 38.8546C2.7176 38.7184 2.43986 38.5384 2.20442 38.3161L1.68945 38.8613L1.17449 39.4066C1.54842 39.7598 1.98162 40.0368 2.4674 40.2392L2.75586 39.5469ZM1.68945 38.8613L2.23471 38.3464C2.01236 38.1109 1.83235 37.8332 1.69621 37.5065L1.00391 37.7949L0.311599 38.0834C0.514005 38.5692 0.79103 39.0024 1.14419 39.3763L1.68945 38.8613ZM1.00391 37.7949L1.69621 37.5065C1.56788 37.1985 1.5 36.8572 1.5 36.4746H0.75H0C0 37.0399 0.101392 37.5789 0.311599 38.0834L1.00391 37.7949ZM0.75 36.4746H1.5V6.7168H0.75H0V36.4746H0.75ZM0.75 6.7168H1.5C1.5 6.3549 1.56649 6.02167 1.69621 5.71034L1.00391 5.42188L0.311599 5.13341C0.102777 5.63458 0 6.16463 0 6.7168H0.75ZM1.00391 5.42188L1.69621 5.71034C1.83235 5.38361 2.01236 5.10587 2.23471 4.87044L1.68945 4.35547L1.14419 3.8405C0.79103 4.21444 0.514005 4.64764 0.311599 5.13341L1.00391 5.42188ZM1.68945 4.35547L2.21978 4.8858C2.4537 4.65188 2.72652 4.46926 3.04432 4.33684L2.75586 3.64453L2.4674 2.95222C1.9727 3.15835 1.53458 3.44968 1.15912 3.82514L1.68945 4.35547ZM2.75586 3.64453L3.04432 4.33684C3.35232 4.2085 3.69354 4.14062 4.07617 4.14062V3.39062V2.64062C3.51089 2.64062 2.97189 2.74202 2.4674 2.95222L2.75586 3.64453ZM4.07617 3.39062V4.14062H21.9004V3.39062V2.64062H4.07617V3.39062ZM21.9004 3.39062V4.14062C23.995 4.14062 25.9204 4.50556 27.6848 5.22736L27.9688 4.5332L28.2527 3.83904C26.2932 3.03741 24.173 2.64062 21.9004 2.64062V3.39062ZM27.9688 4.5332L27.6848 5.22736C29.4593 5.95331 30.9824 6.95715 32.2626 8.23736L32.793 7.70703L33.3233 7.1767C31.8952 5.74858 30.2022 4.63654 28.2527 3.83904L27.9688 4.5332ZM32.793 7.70703L32.266 8.24069C33.5429 9.50167 34.5458 11.0224 35.2717 12.813L35.9668 12.5312L36.6619 12.2495C35.8644 10.2823 34.7513 8.58688 33.32 7.17338L32.793 7.70703ZM35.9668 12.5312L35.2749 12.8206C36.0118 14.5829 36.3848 16.5148 36.3848 18.625H37.1348H37.8848C37.8848 16.3342 37.479 14.2035 36.6587 12.2419L35.9668 12.5312ZM37.1348 18.625H36.3848V24.5664H37.1348H37.8848V18.625H37.1348ZM30.5332 18.625H31.2832C31.2832 17.2553 31.0577 15.9836 30.5956 14.8191L29.8984 15.0957L29.2013 15.3723C29.5856 16.3407 29.7832 17.4218 29.7832 18.625H30.5332ZM29.8984 15.0957L30.5993 14.8287C30.1572 13.6682 29.5156 12.6687 28.6708 11.8427L28.1465 12.3789L27.6221 12.9152C28.3008 13.5787 28.8272 14.3904 29.1976 15.3627L29.8984 15.0957ZM28.1465 12.3789L28.6768 11.8486C27.8359 11.0077 26.8305 10.3677 25.6713 9.92609L25.4043 10.627L25.1373 11.3278C26.1109 11.6987 26.9336 12.2267 27.6162 12.9092L28.1465 12.3789ZM25.4043 10.627L25.6848 9.93137C24.5348 9.46767 23.2699 9.24219 21.9004 9.24219V9.99219V10.7422C23.1038 10.7422 24.1748 10.9399 25.1238 11.3225L25.4043 10.627ZM21.9004 9.99219V9.24219H7.35156V9.99219V10.7422H21.9004V9.99219ZM7.35156 9.99219H6.60156V33.1992H7.35156H8.10156V9.99219H7.35156ZM7.35156 33.1992V33.9492H21.9004V33.1992V32.4492H7.35156V33.1992ZM21.9004 33.1992V33.9492C23.2663 33.9492 24.5278 33.7334 25.675 33.2893L25.4043 32.5898L25.1336 31.8904C24.1819 32.2588 23.1074 32.4492 21.9004 32.4492V33.1992ZM25.4043 32.5898L25.6809 33.287C26.8326 32.83 27.8327 32.1937 28.6708 31.3741L28.1465 30.8379L27.6221 30.3016C26.9368 30.9717 26.1088 31.5034 25.1277 31.8927L25.4043 32.5898ZM28.1465 30.8379L28.6768 31.3682C29.5156 30.5294 30.1556 29.5342 30.5979 28.3918L29.8984 28.1211L29.199 27.8503C28.8287 28.8069 28.3008 29.623 27.6162 30.3076L28.1465 30.8379ZM29.8984 28.1211L30.5956 28.3977C31.0581 27.2321 31.2832 25.9517 31.2832 24.5664H30.5332H29.7832C29.7832 25.7879 29.5851 26.8773 29.2013 27.8445L29.8984 28.1211ZM30.5332 24.5664H31.2832V18.625H30.5332H29.7832V24.5664H30.5332ZM49.5762 6.7168V7.4668L50.3262 6.7168H49.5762ZM42.9746 6.7168H42.2246L42.9746 7.4668V6.7168ZM42.9746 0.75V0L42.2246 0.75H42.9746ZM49.5762 0.75H50.3262L49.5762 0V0.75ZM49.5762 39.8008V40.5508L50.3262 39.8008H49.5762ZM42.9746 39.8008H42.2246L42.9746 40.5508V39.8008ZM42.9746 12.3535V11.6035L42.2246 12.3535H42.9746ZM49.5762 12.3535H50.3262L49.5762 11.6035V12.3535ZM49.5762 6.7168V5.9668H42.9746V6.7168V7.4668H49.5762V6.7168ZM42.9746 6.7168H43.7246V0.75H42.9746H42.2246V6.7168H42.9746ZM42.9746 0.75V1.5H49.5762V0.75V0H42.9746V0.75ZM49.5762 0.75H48.8262V6.7168H49.5762H50.3262V0.75H49.5762ZM49.5762 39.8008V39.0508H42.9746V39.8008V40.5508H49.5762V39.8008ZM42.9746 39.8008H43.7246V12.3535H42.9746H42.2246V39.8008H42.9746ZM42.9746 12.3535V13.1035H49.5762V12.3535V11.6035H42.9746V12.3535ZM49.5762 12.3535H48.8262V39.8008H49.5762H50.3262V12.3535H49.5762ZM85.3516 45.4883L84.6374 45.2592L84.6362 45.2631L85.3516 45.4883ZM84.209 47.875L83.5945 47.4449L83.5896 47.452L84.209 47.875ZM82.5586 49.627L82.1059 49.0288L82.0959 49.0367L82.5586 49.627ZM80.5781 50.8203L80.2766 50.1336L80.2704 50.1364L80.5781 50.8203ZM78.4961 51.4805L78.3558 50.7437L78.3353 50.7479L78.4961 51.4805ZM64.6074 51.709H63.8574L64.6074 52.459V51.709ZM64.6074 45.1074V44.3574L63.8574 45.1074H64.6074ZM78.5215 44.4219L79.0617 44.9421L78.5215 44.4219ZM78.5215 19.6406L77.9812 20.1609L77.9912 20.171L78.5215 19.6406ZM62.6777 19.7168L63.2174 20.2378L63.226 20.2285L62.6777 19.7168ZM76.5156 33.1992H77.2656L76.5156 32.4492V33.1992ZM76.5156 39.8008V40.5508L77.2656 39.8008H76.5156ZM62.627 39.5977L62.4661 40.3302L62.4833 40.3338L62.627 39.5977ZM60.5449 38.9121L60.2371 39.5961L60.2434 39.5988L60.5449 38.9121ZM58.5898 37.7441L58.1271 38.3345L58.1373 38.3422L58.5898 37.7441ZM56.9395 35.9922L56.3201 36.4152L56.325 36.4223L56.9395 35.9922ZM55.7969 33.6055L55.0815 33.8307L55.0827 33.8345L55.7969 33.6055ZM55.5684 19.6152L54.8358 19.4544L54.8322 19.4716L55.5684 19.6152ZM56.2539 17.5586L56.9379 17.8664L56.9406 17.8601L56.2539 17.5586ZM57.4219 15.5781L56.8315 15.1154L56.8238 15.1255L57.4219 15.5781ZM59.1738 13.9277L58.7508 13.3083L58.7437 13.3133L59.1738 13.9277ZM78.4961 12.582L78.3353 13.3146L78.3558 13.3188L78.4961 12.582ZM80.5781 13.2422L80.2703 13.9262L80.2766 13.9289L80.5781 13.2422ZM82.5586 14.4355L82.0959 15.0259L82.106 15.0336L82.5586 14.4355ZM84.209 16.1875L83.5896 16.6105L83.5946 16.6176L84.209 16.1875ZM85.7832 42.4414H85.0332C85.0332 43.5131 84.8971 44.4494 84.6374 45.2592L85.3516 45.4883L86.0657 45.7174C86.3815 44.7329 86.5332 43.638 86.5332 42.4414H85.7832ZM85.3516 45.4883L84.6362 45.2631C84.3678 46.1155 84.0182 46.8396 83.5946 47.4449L84.209 47.875L84.8234 48.3051C85.3476 47.5562 85.7598 46.6892 86.0669 45.7135L85.3516 45.4883ZM84.209 47.875L83.5896 47.452C83.1582 48.0837 82.6632 48.6072 82.106 49.0289L82.5586 49.627L83.0112 50.225C83.7066 49.6988 84.3118 49.0543 84.8283 48.298L84.209 47.875ZM82.5586 49.627L82.0959 49.0367C81.5166 49.4907 80.9103 49.8554 80.2766 50.1336L80.5781 50.8203L80.8796 51.507C81.634 51.1759 82.3479 50.745 83.0213 50.2172L82.5586 49.627ZM80.5781 50.8203L80.2704 50.1364C79.6454 50.4176 79.0075 50.6196 78.3558 50.7437L78.4961 51.4805L78.6364 52.2172C79.4065 52.0705 80.1567 51.8324 80.8859 51.5043L80.5781 50.8203ZM78.4961 51.4805L78.3353 50.7479C77.6872 50.8902 77.0812 50.959 76.5156 50.959V51.709V52.459C77.2027 52.459 77.917 52.3754 78.6569 52.213L78.4961 51.4805ZM76.5156 51.709V50.959H64.6074V51.709V52.459H76.5156V51.709ZM64.6074 51.709H65.3574V45.1074H64.6074H63.8574V51.709H64.6074ZM64.6074 45.1074V45.8574H76.5156V45.1074V44.3574H64.6074V45.1074ZM76.5156 45.1074V45.8574C77.5308 45.8574 78.4301 45.598 79.0617 44.9421L78.5215 44.4219L77.9812 43.9016C77.7327 44.1598 77.2948 44.3574 76.5156 44.3574V45.1074ZM78.5215 44.4219L79.0617 44.9421C79.6789 44.3012 79.9316 43.4274 79.9316 42.4414H79.1816H78.4316C78.4316 43.182 78.2443 43.6285 77.9812 43.9016L78.5215 44.4219ZM79.1816 42.4414H79.9316V21.5957H79.1816H78.4316V42.4414H79.1816ZM79.1816 21.5957H79.9316C79.9316 20.6119 79.6797 19.7382 79.0518 19.1103L78.5215 19.6406L77.9912 20.171C78.2435 20.4233 78.4316 20.8529 78.4316 21.5957H79.1816ZM78.5215 19.6406L79.0617 19.1204C78.4301 18.4645 77.5308 18.2051 76.5156 18.2051V18.9551V19.7051C77.2948 19.7051 77.7327 19.9027 77.9812 20.1609L78.5215 19.6406ZM76.5156 18.9551V18.2051H64.6074V18.9551V19.7051H76.5156V18.9551ZM64.6074 18.9551V18.2051C63.6255 18.2051 62.7695 18.5193 62.1294 19.2051L62.6777 19.7168L63.226 20.2285C63.5339 19.8987 63.9643 19.7051 64.6074 19.7051V18.9551ZM62.6777 19.7168L62.1382 19.1959C61.5131 19.8433 61.2168 20.6642 61.2168 21.5957H61.9668H62.7168C62.7168 21.0037 62.8945 20.5721 63.2173 20.2377L62.6777 19.7168ZM61.9668 21.5957H61.2168V30.5332H61.9668H62.7168V21.5957H61.9668ZM61.9668 30.5332H61.2168C61.2168 31.5265 61.4821 32.4041 62.122 33.044L62.6523 32.5137L63.1827 31.9833C62.9085 31.7092 62.7168 31.2665 62.7168 30.5332H61.9668ZM62.6523 32.5137L62.122 33.044C62.7645 33.6864 63.6529 33.9492 64.6582 33.9492V33.1992V32.4492C63.9031 32.4492 63.4543 32.255 63.1827 31.9833L62.6523 32.5137ZM64.6582 33.1992V33.9492H76.5156V33.1992V32.4492H64.6582V33.1992ZM76.5156 33.1992H75.7656V39.8008H76.5156H77.2656V33.1992H76.5156ZM76.5156 39.8008V39.0508H64.6074V39.8008V40.5508H76.5156V39.8008ZM64.6074 39.8008V39.0508C64.035 39.0508 63.4232 38.9889 62.7706 38.8615L62.627 39.5977L62.4833 40.3338C63.2187 40.4773 63.9272 40.5508 64.6074 40.5508V39.8008ZM62.627 39.5977L62.7878 38.8651C62.1451 38.724 61.4981 38.5115 60.8464 38.2254L60.5449 38.9121L60.2434 39.5988C60.9797 39.9221 61.7208 40.1666 62.4661 40.3302L62.627 39.5977ZM60.5449 38.9121L60.8527 38.2282C60.2298 37.9479 59.6264 37.588 59.0424 37.1461L58.5898 37.7441L58.1373 38.3422C58.8059 38.8482 59.5059 39.267 60.2371 39.5961L60.5449 38.9121ZM58.5898 37.7441L59.0525 37.1538C58.4866 36.7103 57.9871 36.1809 57.5539 35.5621L56.9395 35.9922L56.325 36.4223C56.8398 37.1576 57.4405 37.7962 58.1272 38.3344L58.5898 37.7441ZM56.9395 35.9922L57.5588 35.5692C57.1302 34.9417 56.7793 34.2129 56.511 33.3764L55.7969 33.6055L55.0827 33.8345C55.3899 34.7923 55.8008 35.6547 56.3201 36.4152L56.9395 35.9922ZM55.7969 33.6055L56.5123 33.3803C56.2512 32.551 56.1152 31.6045 56.1152 30.5332H55.3652H54.6152C54.6152 31.7301 54.767 32.8318 55.0815 33.8307L55.7969 33.6055ZM55.3652 30.5332H56.1152V21.5957H55.3652H54.6152V30.5332H55.3652ZM55.3652 21.5957H56.1152C56.1152 21.0233 56.1771 20.4115 56.3045 19.7589L55.5684 19.6152L54.8322 19.4716C54.6888 20.207 54.6152 20.9155 54.6152 21.5957H55.3652ZM55.5684 19.6152L56.3009 19.776C56.4417 19.1348 56.6534 18.4984 56.9378 17.8664L56.2539 17.5586L55.57 17.2508C55.245 17.973 54.9997 18.7077 54.8358 19.4544L55.5684 19.6152ZM56.2539 17.5586L56.9406 17.8601C57.2209 17.2216 57.58 16.612 58.0199 16.0307L57.4219 15.5781L56.8238 15.1255C56.3158 15.7969 55.8963 16.5075 55.5672 17.2571L56.2539 17.5586ZM57.4219 15.5781L58.0122 16.0408C58.4557 15.4749 58.9851 14.9754 59.6039 14.5422L59.1738 13.9277L58.7437 13.3133C58.0084 13.828 57.3698 14.4287 56.8316 15.1155L57.4219 15.5781ZM59.1738 13.9277L59.5968 14.5471C60.2244 14.1185 60.9531 13.7676 61.7896 13.4993L61.5605 12.7852L61.3315 12.071C60.3737 12.3782 59.5113 12.789 58.7509 13.3084L59.1738 13.9277ZM61.5605 12.7852L61.7896 13.4993C62.5994 13.2396 63.5357 13.1035 64.6074 13.1035V12.3535V11.6035C63.4109 11.6035 62.3159 11.7552 61.3315 12.071L61.5605 12.7852ZM64.6074 12.3535V13.1035H76.5156V12.3535V11.6035H64.6074V12.3535ZM76.5156 12.3535V13.1035C77.0812 13.1035 77.6872 13.1723 78.3353 13.3146L78.4961 12.582L78.6569 11.8495C77.917 11.6871 77.2027 11.6035 76.5156 11.6035V12.3535ZM78.4961 12.582L78.3558 13.3188C79.0075 13.4429 79.6454 13.6449 80.2704 13.9261L80.5781 13.2422L80.8859 12.5582C80.1567 12.2301 79.4065 11.992 78.6364 11.8453L78.4961 12.582ZM80.5781 13.2422L80.2766 13.9289C80.9103 14.2071 81.5166 14.5718 82.0959 15.0258L82.5586 14.4355L83.0213 13.8453C82.3479 13.3175 81.634 12.8866 80.8796 12.5555L80.5781 13.2422ZM82.5586 14.4355L82.106 15.0336C82.6632 15.4553 83.1582 15.9788 83.5896 16.6105L84.209 16.1875L84.8283 15.7645C84.3118 15.0082 83.7066 14.3637 83.0112 13.8375L82.5586 14.4355ZM84.209 16.1875L83.5946 16.6176C84.0198 17.2251 84.3695 17.9426 84.6374 18.7779L85.3516 18.5488L86.0657 18.3198C85.7581 17.3608 85.3461 16.504 84.8234 15.7574L84.209 16.1875ZM85.3516 18.5488L84.6374 18.7779C84.8971 19.5877 85.0332 20.524 85.0332 21.5957H85.7832H86.5332C86.5332 20.3992 86.3815 19.3042 86.0657 18.3198L85.3516 18.5488ZM85.7832 21.5957H85.0332V42.4414H85.7832H86.5332V21.5957H85.7832ZM103.887 39.8008V40.5508L104.637 39.8008H103.887ZM97.8945 39.3184L97.678 40.0364L97.6811 40.0373L97.8945 39.3184ZM94.8984 37.7441L94.4299 38.3298L94.4365 38.335L94.8984 37.7441ZM92.5879 34.875L91.9209 35.218L91.923 35.2219L92.5879 34.875ZM91.6738 0.75V0L90.9238 0.75H91.6738ZM98.2754 0.75H99.0254L98.2754 0V0.75ZM99.0371 32.4883L98.5158 33.0276L98.5254 33.0366L99.0371 32.4883ZM103.887 33.1992H104.637L103.887 32.4492V33.1992ZM103.887 39.8008V39.0508H100.941V39.8008V40.5508H103.887V39.8008ZM100.941 39.8008V39.0508C100.078 39.0508 99.1349 38.9042 98.108 38.5994L97.8945 39.3184L97.6811 40.0373C98.8208 40.3757 99.9089 40.5508 100.941 40.5508V39.8008ZM97.8945 39.3184L98.1111 38.6003C97.139 38.3071 96.2227 37.8274 95.3604 37.1533L94.8984 37.7441L94.4365 38.335C95.4362 39.1166 96.5173 39.6864 97.678 40.0364L97.8945 39.3184ZM94.8984 37.7441L95.367 37.1585C94.5255 36.4853 93.8191 35.6134 93.2528 34.5281L92.5879 34.875L91.923 35.2219C92.5754 36.4725 93.4094 37.5134 94.4299 38.3298L94.8984 37.7441ZM92.5879 34.875L93.2549 34.532C92.7133 33.4789 92.4238 32.1563 92.4238 30.5332H91.6738H90.9238C90.9238 32.3294 91.2437 33.9013 91.9209 35.218L92.5879 34.875ZM91.6738 30.5332H92.4238V0.75H91.6738H90.9238V30.5332H91.6738ZM91.6738 0.75V1.5H98.2754V0.75V0H91.6738V0.75ZM98.2754 0.75H97.5254V30.5332H98.2754H99.0254V0.75H98.2754ZM98.2754 30.5332H97.5254C97.5254 31.5157 97.8395 32.3737 98.5158 33.0275L99.0371 32.4883L99.5584 31.949C99.2191 31.6211 99.0254 31.1757 99.0254 30.5332H98.2754ZM99.0371 32.4883L98.5254 33.0366C99.186 33.6532 100.01 33.9492 100.941 33.9492V33.1992V32.4492C100.35 32.4492 99.9038 32.2713 99.5488 31.94L99.0371 32.4883ZM100.941 33.1992V33.9492H103.887V33.1992V32.4492H100.941V33.1992ZM103.887 33.1992H103.137V39.8008H103.887H104.637V33.1992H103.887ZM137.555 33.6055L138.269 33.8345L138.27 33.8307L137.555 33.6055ZM136.412 35.9922L137.027 36.4223L137.031 36.4152L136.412 35.9922ZM134.762 37.7441L135.214 38.3423L135.224 38.3344L134.762 37.7441ZM132.781 38.9121L132.48 38.2253L132.473 38.2282L132.781 38.9121ZM130.699 39.5977L130.843 40.3339L130.856 40.331L130.699 39.5977ZM110.793 37.7441L110.319 38.3256L110.331 38.335L110.793 37.7441ZM108.482 34.875L107.815 35.2181L107.821 35.2294L108.482 34.875ZM108.482 17.3047L107.819 16.9542L107.817 16.9578L108.482 17.3047ZM110.793 14.4355L111.26 15.0223L111.261 15.0212L110.793 14.4355ZM135.904 15.5781L135.313 16.0401L135.318 16.0453L135.904 15.5781ZM137.479 18.5742L136.759 18.7877L136.763 18.7979L137.479 18.5742ZM114.855 19.6406L115.376 20.1809L115.386 20.171L114.855 19.6406ZM130.725 32.5137L131.265 33.0339L130.725 32.5137ZM137.986 30.5332H137.236C137.236 31.6045 137.1 32.551 136.839 33.3803L137.555 33.6055L138.27 33.8307C138.585 32.8318 138.736 31.7301 138.736 30.5332H137.986ZM137.555 33.6055L136.841 33.3764C136.572 34.2129 136.221 34.9417 135.793 35.5692L136.412 35.9922L137.031 36.4152C137.551 35.6547 137.962 34.7923 138.269 33.8345L137.555 33.6055ZM136.412 35.9922L135.798 35.5621C135.364 36.1809 134.865 36.7103 134.299 37.1538L134.762 37.7441L135.224 38.3344C135.911 37.7962 136.512 37.1576 137.027 36.4223L136.412 35.9922ZM134.762 37.7441L134.309 37.1461C133.728 37.586 133.118 37.9451 132.48 38.2254L132.781 38.9121L133.083 39.5988C133.832 39.2698 134.543 38.8502 135.214 38.3422L134.762 37.7441ZM132.781 38.9121L132.473 38.2282C131.844 38.5116 131.2 38.7233 130.542 38.8643L130.699 39.5977L130.856 40.331C131.62 40.1673 132.365 39.922 133.089 39.5961L132.781 38.9121ZM130.699 39.5977L130.556 38.8615C129.903 38.9889 129.291 39.0508 128.719 39.0508V39.8008V40.5508C129.399 40.5508 130.107 40.4773 130.843 40.3338L130.699 39.5977ZM128.719 39.8008V39.0508H116.811V39.8008V40.5508H128.719V39.8008ZM116.811 39.8008V39.0508C115.983 39.0508 115.058 38.9051 114.028 38.5994L113.814 39.3184L113.601 40.0373C114.738 40.3749 115.81 40.5508 116.811 40.5508V39.8008ZM113.814 39.3184L114.028 38.5994C113.039 38.3057 112.115 37.8259 111.255 37.1533L110.793 37.7441L110.331 38.335C111.333 39.1181 112.423 39.6878 113.601 40.0373L113.814 39.3184ZM110.793 37.7441L111.267 37.1627C110.438 36.4878 109.729 35.6121 109.143 34.5206L108.482 34.875L107.821 35.2294C108.489 36.4739 109.319 37.5109 110.319 38.3256L110.793 37.7441ZM108.482 34.875L109.149 34.532C108.608 33.4789 108.318 32.1563 108.318 30.5332H107.568H106.818C106.818 32.3294 107.138 33.9013 107.815 35.218L108.482 34.875ZM107.568 30.5332H108.318V21.5957H107.568H106.818V30.5332H107.568ZM107.568 21.5957H108.318C108.318 19.9904 108.608 18.6863 109.147 17.6516L108.482 17.3047L107.817 16.9578C107.139 18.259 106.818 19.8156 106.818 21.5957H107.568ZM108.482 17.3047L109.145 17.6552C109.731 16.5483 110.438 15.6769 111.26 15.0223L110.793 14.4355L110.326 13.8488C109.32 14.6499 108.487 15.6913 107.819 16.9542L108.482 17.3047ZM110.793 14.4355L111.261 15.0212C112.121 14.3335 113.042 13.8475 114.028 13.5549L113.814 12.8359L113.601 12.117C112.42 12.4676 111.327 13.048 110.324 13.8499L110.793 14.4355ZM113.814 12.8359L114.028 13.5549C115.058 13.2492 115.983 13.1035 116.811 13.1035V12.3535V11.6035C115.81 11.6035 114.738 11.7794 113.601 12.117L113.814 12.8359ZM116.811 12.3535V13.1035H128.719V12.3535V11.6035H116.811V12.3535ZM128.719 12.3535V13.1035C130.324 13.1035 131.638 13.3925 132.692 13.9345L133.035 13.2676L133.378 12.6006C132.062 11.9239 130.499 11.6035 128.719 11.6035V12.3535ZM133.035 13.2676L132.692 13.9345C133.793 14.5007 134.66 15.2048 135.313 16.0401L135.904 15.5781L136.495 15.1162C135.692 14.0894 134.647 13.2533 133.378 12.6006L133.035 13.2676ZM135.904 15.5781L135.318 16.0453C135.988 16.8867 136.466 17.7998 136.76 18.7877L137.479 18.5742L138.198 18.3608C137.848 17.182 137.277 16.0977 136.491 15.1109L135.904 15.5781ZM137.479 18.5742L136.763 18.7979C137.083 19.8241 137.236 20.7551 137.236 21.5957H137.986H138.736C138.736 20.5744 138.551 19.491 138.194 18.3505L137.479 18.5742ZM137.986 21.5957H137.236V30.5332H137.986H138.736V21.5957H137.986ZM131.385 21.6465H132.135C132.135 20.6193 131.878 19.709 131.219 19.075L130.699 19.6152L130.179 20.1555C130.435 20.4017 130.635 20.8455 130.635 21.6465H131.385ZM130.699 19.6152L131.219 19.075C130.579 18.4578 129.705 18.2051 128.719 18.2051V18.9551V19.7051C129.459 19.7051 129.906 19.8924 130.179 20.1555L130.699 19.6152ZM128.719 18.9551V18.2051H116.861V18.9551V19.7051H128.719V18.9551ZM116.861 18.9551V18.2051C115.856 18.2051 114.968 18.4678 114.325 19.1103L114.855 19.6406L115.386 20.171C115.657 19.8993 116.106 19.7051 116.861 19.7051V18.9551ZM114.855 19.6406L114.335 19.1004C113.685 19.727 113.42 20.6044 113.42 21.5957H114.17H114.92C114.92 20.8604 115.112 20.4345 115.376 20.1809L114.855 19.6406ZM114.17 21.5957H113.42V30.5332H114.17H114.92V21.5957H114.17ZM114.17 30.5332H113.42C113.42 31.5265 113.685 32.4041 114.325 33.044L114.855 32.5137L115.386 31.9833C115.112 31.7092 114.92 31.2665 114.92 30.5332H114.17ZM114.855 32.5137L114.325 33.044C114.968 33.6864 115.856 33.9492 116.861 33.9492V33.1992V32.4492C116.106 32.4492 115.657 32.255 115.386 31.9833L114.855 32.5137ZM116.861 33.1992V33.9492H128.719V33.1992V32.4492H116.861V33.1992ZM128.719 33.1992V33.9492C129.734 33.9492 130.633 33.6898 131.265 33.0339L130.725 32.5137L130.184 31.9934C129.936 32.2516 129.498 32.4492 128.719 32.4492V33.1992ZM130.725 32.5137L131.265 33.0339C131.882 32.393 132.135 31.5192 132.135 30.5332H131.385H130.635C130.635 31.2738 130.447 31.7203 130.184 31.9934L130.725 32.5137ZM131.385 30.5332H132.135V21.6465H131.385H130.635V30.5332H131.385ZM173.051 33.6055L173.765 33.8345L173.766 33.8307L173.051 33.6055ZM171.908 35.9922L172.523 36.4223L172.528 36.4152L171.908 35.9922ZM170.258 37.7441L170.71 38.3423L170.72 38.3344L170.258 37.7441ZM168.277 38.9121L167.976 38.2253L167.97 38.2282L168.277 38.9121ZM166.195 39.5977L166.339 40.3339L166.352 40.331L166.195 39.5977ZM146.289 37.7441L145.815 38.3256L145.827 38.335L146.289 37.7441ZM143.979 34.875L143.311 35.2181L143.318 35.2294L143.979 34.875ZM143.979 17.3047L143.315 16.9542L143.314 16.9578L143.979 17.3047ZM146.289 14.4355L146.756 15.0223L146.758 15.0212L146.289 14.4355ZM171.4 15.5781L170.81 16.0401L170.814 16.0453L171.4 15.5781ZM172.975 18.5742L172.256 18.7877L172.259 18.7979L172.975 18.5742ZM150.352 19.6406L150.872 20.1809L150.882 20.171L150.352 19.6406ZM166.221 32.5137L166.761 33.0339L166.221 32.5137ZM173.482 30.5332H172.732C172.732 31.6045 172.596 32.551 172.335 33.3803L173.051 33.6055L173.766 33.8307C174.081 32.8318 174.232 31.7301 174.232 30.5332H173.482ZM173.051 33.6055L172.337 33.3764C172.068 34.2129 171.717 34.9417 171.289 35.5692L171.908 35.9922L172.528 36.4152C173.047 35.6547 173.458 34.7923 173.765 33.8345L173.051 33.6055ZM171.908 35.9922L171.294 35.5621C170.861 36.1809 170.361 36.7103 169.795 37.1538L170.258 37.7441L170.72 38.3344C171.407 37.7962 172.008 37.1576 172.523 36.4223L171.908 35.9922ZM170.258 37.7441L169.805 37.1461C169.224 37.586 168.614 37.9451 167.976 38.2254L168.277 38.9121L168.579 39.5988C169.328 39.2698 170.039 38.8502 170.71 38.3422L170.258 37.7441ZM168.277 38.9121L167.97 38.2282C167.34 38.5116 166.696 38.7233 166.038 38.8643L166.195 39.5977L166.352 40.331C167.116 40.1673 167.861 39.922 168.585 39.5961L168.277 38.9121ZM166.195 39.5977L166.052 38.8615C165.399 38.9889 164.787 39.0508 164.215 39.0508V39.8008V40.5508C164.895 40.5508 165.604 40.4773 166.339 40.3338L166.195 39.5977ZM164.215 39.8008V39.0508H152.307V39.8008V40.5508H164.215V39.8008ZM152.307 39.8008V39.0508C151.48 39.0508 150.554 38.9051 149.524 38.5994L149.311 39.3184L149.097 40.0373C150.234 40.3749 151.306 40.5508 152.307 40.5508V39.8008ZM149.311 39.3184L149.524 38.5994C148.535 38.3057 147.611 37.8259 146.751 37.1533L146.289 37.7441L145.827 38.335C146.829 39.1181 147.92 39.6878 149.097 40.0373L149.311 39.3184ZM146.289 37.7441L146.763 37.1627C145.934 36.4878 145.225 35.6121 144.639 34.5206L143.979 34.875L143.318 35.2294C143.985 36.4739 144.816 37.5109 145.815 38.3256L146.289 37.7441ZM143.979 34.875L144.645 34.532C144.104 33.4789 143.814 32.1563 143.814 30.5332H143.064H142.314C142.314 32.3294 142.634 33.9013 143.312 35.218L143.979 34.875ZM143.064 30.5332H143.814V21.5957H143.064H142.314V30.5332H143.064ZM143.064 21.5957H143.814C143.814 19.9904 144.104 18.6863 144.643 17.6516L143.979 17.3047L143.314 16.9578C142.635 18.259 142.314 19.8156 142.314 21.5957H143.064ZM143.979 17.3047L144.642 17.6552C145.227 16.5483 145.934 15.6769 146.756 15.0223L146.289 14.4355L145.822 13.8488C144.816 14.6499 143.983 15.6913 143.315 16.9542L143.979 17.3047ZM146.289 14.4355L146.758 15.0212C147.617 14.3335 148.539 13.8475 149.524 13.5549L149.311 12.8359L149.097 12.117C147.916 12.4676 146.823 13.048 145.821 13.8499L146.289 14.4355ZM149.311 12.8359L149.524 13.5549C150.554 13.2492 151.48 13.1035 152.307 13.1035V12.3535V11.6035C151.306 11.6035 150.234 11.7794 149.097 12.117L149.311 12.8359ZM152.307 12.3535V13.1035H164.215V12.3535V11.6035H152.307V12.3535ZM164.215 12.3535V13.1035C165.82 13.1035 167.134 13.3925 168.188 13.9345L168.531 13.2676L168.874 12.6006C167.558 11.9239 165.995 11.6035 164.215 11.6035V12.3535ZM168.531 13.2676L168.188 13.9345C169.289 14.5007 170.157 15.2048 170.81 16.0401L171.4 15.5781L171.991 15.1162C171.189 14.0894 170.143 13.2533 168.874 12.6006L168.531 13.2676ZM171.4 15.5781L170.814 16.0453C171.484 16.8867 171.962 17.7998 172.256 18.7877L172.975 18.5742L173.694 18.3608C173.344 17.182 172.773 16.0977 171.987 15.1109L171.4 15.5781ZM172.975 18.5742L172.259 18.7979C172.579 19.8241 172.732 20.7551 172.732 21.5957H173.482H174.232C174.232 20.5744 174.047 19.491 173.69 18.3505L172.975 18.5742ZM173.482 21.5957H172.732V30.5332H173.482H174.232V21.5957H173.482ZM166.881 21.6465H167.631C167.631 20.6193 167.374 19.709 166.716 19.075L166.195 19.6152L165.675 20.1555C165.931 20.4017 166.131 20.8455 166.131 21.6465H166.881ZM166.195 19.6152L166.716 19.075C166.075 18.4578 165.201 18.2051 164.215 18.2051V18.9551V19.7051C164.955 19.7051 165.402 19.8924 165.675 20.1555L166.195 19.6152ZM164.215 18.9551V18.2051H152.357V18.9551V19.7051H164.215V18.9551ZM152.357 18.9551V18.2051C151.352 18.2051 150.464 18.4678 149.821 19.1103L150.352 19.6406L150.882 20.171C151.154 19.8993 151.602 19.7051 152.357 19.7051V18.9551ZM150.352 19.6406L149.831 19.1004C149.181 19.727 148.916 20.6044 148.916 21.5957H149.666H150.416C150.416 20.8604 150.608 20.4345 150.872 20.1809L150.352 19.6406ZM149.666 21.5957H148.916V30.5332H149.666H150.416V21.5957H149.666ZM149.666 30.5332H148.916C148.916 31.5265 149.181 32.4041 149.821 33.044L150.352 32.5137L150.882 31.9833C150.608 31.7092 150.416 31.2665 150.416 30.5332H149.666ZM150.352 32.5137L149.821 33.044C150.464 33.6864 151.352 33.9492 152.357 33.9492V33.1992V32.4492C151.602 32.4492 151.154 32.255 150.882 31.9833L150.352 32.5137ZM152.357 33.1992V33.9492H164.215V33.1992V32.4492H152.357V33.1992ZM164.215 33.1992V33.9492C165.23 33.9492 166.129 33.6898 166.761 33.0339L166.221 32.5137L165.68 31.9934C165.432 32.2516 164.994 32.4492 164.215 32.4492V33.1992ZM166.221 32.5137L166.761 33.0339C167.378 32.393 167.631 31.5192 167.631 30.5332H166.881H166.131C166.131 31.2738 165.944 31.7203 165.68 31.9934L166.221 32.5137ZM166.881 30.5332H167.631V21.6465H166.881H166.131V30.5332H166.881ZM208.953 33.6055L209.667 33.8345L209.669 33.8307L208.953 33.6055ZM207.811 35.9922L208.425 36.4223L208.43 36.4152L207.811 35.9922ZM206.16 37.7441L206.613 38.3423L206.623 38.3344L206.16 37.7441ZM204.18 38.9121L203.878 38.2253L203.872 38.2282L204.18 38.9121ZM202.123 39.5977L202.267 40.3338L202.284 40.3302L202.123 39.5977ZM188.234 39.8008H187.484L188.234 40.5508V39.8008ZM188.234 33.1992V32.4492L187.484 33.1992H188.234ZM202.123 32.5137L202.663 33.0339L202.123 32.5137ZM202.098 19.6152L201.567 20.1456L201.577 20.1555L202.098 19.6152ZM186.254 19.6406L186.774 20.1809L186.784 20.171L186.254 19.6406ZM185.568 48.3828V49.1328L186.318 48.3828H185.568ZM178.967 48.3828H178.217L178.967 49.1328V48.3828ZM179.398 18.5488L178.684 18.3198L179.398 18.5488ZM180.541 16.1875L179.929 15.7544L179.927 15.7574L180.541 16.1875ZM182.217 14.4355L182.669 15.0337L182.679 15.0258L182.217 14.4355ZM184.172 13.2422L183.87 12.5554L183.864 12.5582L184.172 13.2422ZM186.254 12.582L186.398 13.3183L186.411 13.3154L186.254 12.582ZM205.551 13.9277L205.121 14.5422L205.128 14.5471L205.551 13.9277ZM207.303 15.5781L206.705 16.0308L206.712 16.0408L207.303 15.5781ZM208.496 17.5586L207.809 17.8601L207.812 17.8664L208.496 17.5586ZM209.156 19.6152L208.42 19.7589L208.424 19.776L209.156 19.6152ZM209.385 30.5332H208.635C208.635 31.6045 208.499 32.551 208.238 33.3803L208.953 33.6055L209.669 33.8307C209.983 32.8318 210.135 31.7301 210.135 30.5332H209.385ZM208.953 33.6055L208.239 33.3764C207.971 34.2129 207.62 34.9417 207.191 35.5692L207.811 35.9922L208.43 36.4152C208.949 35.6547 209.36 34.7923 209.667 33.8345L208.953 33.6055ZM207.811 35.9922L207.196 35.5621C206.763 36.1809 206.263 36.7103 205.697 37.1538L206.16 37.7441L206.623 38.3344C207.31 37.7962 207.91 37.1576 208.425 36.4223L207.811 35.9922ZM206.16 37.7441L205.708 37.1461C205.126 37.586 204.517 37.9451 203.878 38.2254L204.18 38.9121L204.481 39.5988C205.231 39.2698 205.941 38.8502 206.613 38.3422L206.16 37.7441ZM204.18 38.9121L203.872 38.2282C203.24 38.5126 202.604 38.7243 201.962 38.8651L202.123 39.5977L202.284 40.3302C203.031 40.1663 203.765 39.921 204.487 39.5961L204.18 38.9121ZM202.123 39.5977L201.979 38.8615C201.327 38.9889 200.715 39.0508 200.143 39.0508V39.8008V40.5508C200.823 40.5508 201.531 40.4773 202.267 40.3338L202.123 39.5977ZM200.143 39.8008V39.0508H188.234V39.8008V40.5508H200.143V39.8008ZM188.234 39.8008H188.984V33.1992H188.234H187.484V39.8008H188.234ZM188.234 33.1992V33.9492H200.143V33.1992V32.4492H188.234V33.1992ZM200.143 33.1992V33.9492C201.146 33.9492 202.034 33.6873 202.663 33.0339L202.123 32.5137L201.583 31.9934C201.332 32.2541 200.9 32.4492 200.143 32.4492V33.1992ZM202.123 32.5137L202.663 33.0339C203.28 32.393 203.533 31.5192 203.533 30.5332H202.783H202.033C202.033 31.2738 201.846 31.7203 201.583 31.9934L202.123 32.5137ZM202.783 30.5332H203.533V21.6465H202.783H202.033V30.5332H202.783ZM202.783 21.6465H203.533C203.533 20.6193 203.276 19.709 202.618 19.075L202.098 19.6152L201.577 20.1555C201.833 20.4017 202.033 20.8455 202.033 21.6465H202.783ZM202.098 19.6152L202.628 19.0849C202 18.457 201.126 18.2051 200.143 18.2051V18.9551V19.7051C200.885 19.7051 201.315 19.8932 201.567 20.1456L202.098 19.6152ZM200.143 18.9551V18.2051H188.285V18.9551V19.7051H200.143V18.9551ZM188.285 18.9551V18.2051C187.268 18.2051 186.368 18.4654 185.724 19.1103L186.254 19.6406L186.784 20.171C187.053 19.9018 187.508 19.7051 188.285 19.7051V18.9551ZM186.254 19.6406L185.734 19.1004C185.083 19.727 184.818 20.6044 184.818 21.5957H185.568H186.318C186.318 20.8604 186.511 20.4345 186.774 20.1809L186.254 19.6406ZM185.568 21.5957H184.818V48.3828H185.568H186.318V21.5957H185.568ZM185.568 48.3828V47.6328H178.967V48.3828V49.1328H185.568V48.3828ZM178.967 48.3828H179.717V21.5957H178.967H178.217V48.3828H178.967ZM178.967 21.5957H179.717C179.717 20.524 179.853 19.5877 180.113 18.7779L179.398 18.5488L178.684 18.3198C178.369 19.3042 178.217 20.3992 178.217 21.5957H178.967ZM179.398 18.5488L180.113 18.7779C180.381 17.9426 180.73 17.2251 181.155 16.6176L180.541 16.1875L179.927 15.7574C179.404 16.504 178.992 17.3608 178.684 18.3198L179.398 18.5488ZM180.541 16.1875L181.153 16.6206C181.603 15.9843 182.109 15.4574 182.669 15.0336L182.217 14.4355L181.764 13.8375C181.072 14.3616 180.46 15.0027 179.929 15.7544L180.541 16.1875ZM182.217 14.4355L182.679 15.0258C183.261 14.5696 183.862 14.2043 184.48 13.9261L184.172 13.2422L183.864 12.5582C183.128 12.8895 182.425 13.3197 181.754 13.8453L182.217 14.4355ZM184.172 13.2422L184.473 13.9289C185.12 13.6449 185.762 13.4422 186.398 13.3181L186.254 12.582L186.11 11.8459C185.358 11.9927 184.611 12.2301 183.87 12.5555L184.172 13.2422ZM186.254 12.582L186.411 13.3154C187.08 13.1721 187.687 13.1035 188.234 13.1035V12.3535V11.6035C187.563 11.6035 186.85 11.6873 186.097 11.8487L186.254 12.582ZM188.234 12.3535V13.1035H200.143V12.3535V11.6035H188.234V12.3535ZM200.143 12.3535V13.1035C201.214 13.1035 202.151 13.2396 202.96 13.4993L203.189 12.7852L203.419 12.071C202.434 11.7552 201.339 11.6035 200.143 11.6035V12.3535ZM203.189 12.7852L202.96 13.4993C203.796 13.7673 204.513 14.1169 205.121 14.5422L205.551 13.9277L205.981 13.3133C205.234 12.7907 204.377 12.3786 203.419 12.071L203.189 12.7852ZM205.551 13.9277L205.128 14.5471C205.76 14.9785 206.283 15.4735 206.705 16.0307L207.303 15.5781L207.901 15.1255C207.375 14.4302 206.73 13.8249 205.974 13.3084L205.551 13.9277ZM207.303 15.5781L206.712 16.0408C207.166 16.6201 207.531 17.2264 207.809 17.8601L208.496 17.5586L209.183 17.2571C208.852 16.5027 208.421 15.7888 207.893 15.1155L207.303 15.5781ZM208.496 17.5586L207.812 17.8664C208.094 18.4935 208.296 19.1241 208.42 19.7589L209.156 19.6152L209.892 19.4716C209.745 18.7183 209.507 17.9778 209.18 17.2508L208.496 17.5586ZM209.156 19.6152L208.424 19.776C208.566 20.4242 208.635 21.0301 208.635 21.5957H209.385H210.135C210.135 20.9087 210.051 20.1943 209.889 19.4544L209.156 19.6152ZM209.385 21.5957H208.635V30.5332H209.385H210.135V21.5957H209.385Z" fill="#00FF9C"/>
</svg>
