<svg width="140" height="140" viewBox="0 0 140 140" fill="none" xmlns="http://www.w3.org/2000/svg">
<path d="M71.013 119.996L92.9164 127.315L88.3036 104.687L71.013 119.996ZM63.9067 119.627L64.1504 117.642C37.8384 114.411 19.1272 90.4619 22.3579 64.1499L20.3728 63.9061L18.3877 63.6624C14.8878 92.1671 35.1582 118.112 63.6629 121.612L63.9067 119.627ZM20.3728 63.9061L22.3579 64.1499C25.5886 37.8378 49.5378 19.1267 75.8499 22.3574L76.0936 20.3723L76.3374 18.3872C47.8326 14.8872 21.8877 35.1576 18.3877 63.6624L20.3728 63.9061ZM119.627 76.0931L117.642 75.8493C115.438 93.8059 103.584 108.226 87.9058 114.545L88.6535 116.4L89.4012 118.255C106.374 111.413 119.223 95.7952 121.613 76.3368L119.627 76.0931ZM76.0936 20.3723L75.8499 22.3574C102.162 25.5881 120.873 49.5372 117.642 75.8493L119.627 76.0931L121.613 76.3368C125.112 47.8321 104.842 21.8871 76.3374 18.3872L76.0936 20.3723Z" fill="#00FF9C"/>
<path d="M63.9067 119.627C36.4983 116.262 17.0075 91.3145 20.3728 63.9061C23.7382 36.4977 48.6852 17.0069 76.0936 20.3723C103.502 23.7376 122.993 48.6846 119.627 76.0931C117.208 95.8014 103.629 111.416 86 117.383" stroke="#00FF9C" stroke-width="10"/>
<path opacity="0.35" d="M70 104C88.7777 104 104 88.7777 104 70C104 51.2223 88.7777 36 70 36C51.2223 36 36 51.2223 36 70C36 88.7777 51.2223 104 70 104Z" stroke="#00FF9C" stroke-width="6.5"/>
<path opacity="0.25" d="M70 88C79.9411 88 88 79.9411 88 70C88 60.0589 79.9411 52 70 52C60.0589 52 52 60.0589 52 70C52 79.9411 60.0589 88 70 88Z" stroke="#00FF9C" stroke-width="6.5"/>
<path d="M70 77C73.866 77 77 73.866 77 70C77 66.134 73.866 63 70 63C66.134 63 63 66.134 63 70C63 73.866 66.134 77 70 77Z" fill="#00FF9C"/>
</svg>
